<?xml version="1.0" encoding="utf-8"?>
<!-- Generator: Adobe Illustrator 19.2.1, SVG Export Plug-In . SVG Version: 6.00 Build 0)  -->
<svg version="1.1" id="Layer_1" xmlns="http://www.w3.org/2000/svg" xmlns:xlink="http://www.w3.org/1999/xlink" x="0px" y="0px"
	 viewBox="0 0 50 50" style="enable-background:new 0 0 50 50;" xml:space="preserve">
<g id="Icons_3_">
	<g>
		<path d="M49.997,30.406c0-0.455,0-0.911-0.028-1.366c-0.063-1.04-0.196-2.072-0.417-3.09c-0.295-1.36-0.736-2.669-1.396-3.897
			c-1.176-2.188-2.867-3.828-5.146-4.843c-1.303-0.579-2.671-0.894-4.09-1.004c-1.303-0.1-2.6-0.06-3.885,0.199
			c-1.957,0.395-3.662,1.269-5.094,2.668c-0.668,0.654-1.244,1.383-1.763,2.158c-0.036,0.053-0.058,0.125-0.155,0.162
			c0-1.501,0-2.983,0-4.468c-3.582,0-7.144,0-10.718,0c0,0.077-0.002,0.141,0,0.205c0.008,0.345,0.024,0.69,0.025,1.034
			c0.013,1.874,0.028,3.748,0.03,5.622c0.002,3.006-0.006,6.013-0.011,9.019c-0.003,1.94-0.005,3.879-0.009,5.818
			c-0.006,2.037-0.019,4.073-0.027,6.11c-0.006,1.477-0.009,2.955-0.013,4.432c3.579,0,7.159,0,10.738,0
			c-0.002-0.085-0.006-0.169-0.006-0.253c0-5.974,0-11.948,0-17.921c0-0.599,0.038-1.195,0.155-1.785
			c0.083-0.419,0.242-0.808,0.431-1.187c0.505-1.008,1.194-1.859,2.139-2.486c0.85-0.563,1.789-0.855,2.806-0.899
			c0.634-0.027,1.261,0.016,1.877,0.177c1.226,0.323,2.15,1.045,2.788,2.136c0.411,0.704,0.66,1.468,0.82,2.263
			c0.169,0.838,0.242,1.686,0.242,2.541c0,5.779,0,11.557,0,17.336c0,0.025-0.003,0.052-0.005,0.077c3.566,0,7.133,0,10.699,0
			C49.991,49.076,50,48.985,50,48.894C49.998,42.734,49.998,36.57,49.997,30.406z"/>
		<path d="M11.367,16.928c-3.568,0-7.13,0-10.707,0c0,0.105,0,0.195,0,0.285c0,10.561,0,21.122,0,31.682
			c0,0.091,0.003,0.182,0.003,0.273c3.566,0,7.133,0,10.699,0c0.008-0.097,0.022-0.193,0.022-0.29
			c0.002-10.555,0.002-21.108,0.002-31.663c0-0.066,0.002-0.13-0.002-0.195C11.385,16.989,11.374,16.96,11.367,16.928z"/>
		<path d="M10.105,2.677C9.256,1.985,8.27,1.609,7.196,1.45C7.023,1.425,6.85,1.399,6.678,1.372c-0.391,0-0.781,0-1.172,0
			C5.334,1.398,5.161,1.425,4.989,1.45C3.736,1.635,2.611,2.1,1.68,2.978c-0.842,0.794-1.35,1.769-1.562,2.901
			C0.082,6.069,0.039,6.257,0,6.447c0,0.339,0,0.678,0,1.015C0.038,7.631,0.078,7.8,0.111,7.971
			c0.323,1.727,1.252,3.014,2.799,3.847c0.809,0.434,1.683,0.642,2.597,0.695c0.991,0.058,1.962-0.039,2.9-0.372
			c1.404-0.497,2.478-1.383,3.134-2.735c0.54-1.112,0.673-2.285,0.444-3.497C11.739,4.614,11.137,3.519,10.105,2.677z"/>
	</g>
</g>
</svg>
