<?xml version="1.0" encoding="utf-8"?>
<!-- Generator: Adobe Illustrator 19.2.1, SVG Export Plug-In . SVG Version: 6.00 Build 0)  -->
<svg version="1.1" id="Layer_1" xmlns="http://www.w3.org/2000/svg" xmlns:xlink="http://www.w3.org/1999/xlink" x="0px" y="0px"
	 viewBox="0 0 50 50" style="enable-background:new 0 0 50 50;" xml:space="preserve">
<path d="M25,0C11.193,0,0,11.193,0,25s11.193,25,25,25s25-11.193,25-25S38.807,0,25,0z M19.035,36.082
	c0,0.051-0.007,0.101-0.011,0.152c-1.87,0-3.739,0-5.609,0c0-0.048-0.002-0.095-0.002-0.143c0-5.536,0-11.073,0-16.61
	c0-0.048,0-0.095,0-0.15c1.876,0,3.743,0,5.613,0c0.003,0.016,0.009,0.032,0.009,0.048c0.002,0.034,0.001,0.067,0.001,0.102
	C19.036,25.016,19.036,30.549,19.035,36.082z M19.117,15.388c-0.344,0.709-0.907,1.173-1.643,1.434
	c-0.492,0.174-1.001,0.225-1.52,0.195c-0.479-0.028-0.937-0.137-1.362-0.364c-0.812-0.437-1.298-1.112-1.468-2.017
	c-0.017-0.09-0.039-0.178-0.058-0.267c0-0.177,0-0.354,0-0.532c0.021-0.1,0.043-0.198,0.062-0.298
	c0.111-0.594,0.377-1.105,0.819-1.521c0.488-0.46,1.078-0.704,1.735-0.801c0.09-0.013,0.181-0.027,0.271-0.041
	c0.205,0,0.409,0,0.614,0c0.09,0.014,0.181,0.028,0.271,0.041c0.563,0.083,1.08,0.28,1.525,0.643
	c0.541,0.442,0.857,1.015,0.986,1.695C19.47,14.19,19.4,14.805,19.117,15.388z M39.272,36.234c-1.87,0-3.739,0-5.609,0
	c0.001-0.013,0.002-0.027,0.002-0.04c0-3.03,0-6.059,0-9.089c0-0.448-0.038-0.893-0.127-1.332c-0.084-0.417-0.215-0.817-0.43-1.186
	c-0.335-0.572-0.819-0.951-1.462-1.12c-0.323-0.085-0.652-0.107-0.984-0.093c-0.533,0.023-1.025,0.176-1.471,0.471
	c-0.496,0.329-0.857,0.775-1.121,1.303c-0.1,0.199-0.183,0.403-0.226,0.622c-0.062,0.309-0.081,0.622-0.081,0.936
	c0,3.132,0,6.264,0,9.396c0,0.044,0.002,0.088,0.003,0.132c-1.876,0-3.754,0-5.63,0c0.002-0.775,0.003-1.549,0.007-2.324
	c0.004-1.068,0.011-2.135,0.014-3.203c0.002-1.017,0.003-2.033,0.005-3.05c0.002-1.576,0.007-3.152,0.006-4.729
	c-0.001-0.983-0.009-1.965-0.016-2.948c-0.001-0.18-0.009-0.361-0.013-0.542c-0.001-0.034,0-0.067,0-0.108c1.874,0,3.741,0,5.619,0
	c0,0.779,0,1.556,0,2.343c0.051-0.019,0.062-0.057,0.081-0.085c0.272-0.406,0.574-0.788,0.924-1.131
	c0.751-0.733,1.644-1.192,2.671-1.399c0.673-0.136,1.353-0.157,2.037-0.104c0.744,0.058,1.461,0.223,2.144,0.526
	c1.195,0.532,2.081,1.392,2.698,2.539c0.346,0.644,0.577,1.33,0.732,2.043c0.116,0.534,0.186,1.075,0.219,1.62
	c0.015,0.238,0.015,0.478,0.015,0.716c0.001,3.231,0.001,6.463,0.002,9.693C39.28,36.138,39.275,36.186,39.272,36.234z"/>
</svg>
