<?xml version="1.0" encoding="utf-8"?>
<!-- Generator: Adobe Illustrator 19.2.1, SVG Export Plug-In . SVG Version: 6.00 Build 0)  -->
<svg version="1.1" id="Layer_1" xmlns="http://www.w3.org/2000/svg" xmlns:xlink="http://www.w3.org/1999/xlink" x="0px" y="0px"
	 viewBox="0 0 50 50" style="enable-background:new 0 0 50 50;" xml:space="preserve">
<path d="M1.902,42.004c-1.143,1.143-1.56,2.589-0.416,3.732l2.906,2.906c1.143,1.143,3.002,1.143,4.149,0l11.709-11.715
	c2.82,1.649,6.096,2.601,9.601,2.601c10.528,0,19.655-9.126,19.655-19.655c0-10.532-8.534-19.069-19.066-19.066
	c-10.532,0-19.658,9.123-19.658,19.655c0,3.621,1.011,7.012,2.768,9.894L1.902,42.004L1.902,42.004z M29.85,33.663
	c-7.289,0-13.201-5.911-13.201-13.201c0-7.295,6.497-13.789,13.789-13.789c7.289,0,13.198,5.908,13.198,13.201
	C43.636,27.163,37.142,33.66,29.85,33.663z"/>
</svg>
