<?xml version="1.0" encoding="utf-8"?>
<!-- Generator: Adobe Illustrator 19.2.1, SVG Export Plug-In . SVG Version: 6.00 Build 0)  -->
<svg version="1.1" id="Layer_1" xmlns="http://www.w3.org/2000/svg" xmlns:xlink="http://www.w3.org/1999/xlink" x="0px" y="0px"
	 viewBox="0 0 50 50" style="enable-background:new 0 0 50 50;" xml:space="preserve">
<path d="M43.206,21.505c-0.152-0.468-0.549-0.803-1.037-0.873l-10.406-1.512l-4.654-9.43h0c-0.218-0.441-0.659-0.716-1.151-0.716
	c-0.492,0-0.934,0.274-1.151,0.716l-4.654,9.43L9.746,20.632c-0.487,0.071-0.884,0.405-1.037,0.873
	c-0.152,0.468-0.028,0.973,0.325,1.316l7.53,7.34l-1.778,10.364c-0.083,0.485,0.113,0.967,0.511,1.256
	c0.225,0.164,0.488,0.246,0.753,0.246c0.204,0,0.409-0.049,0.599-0.149l9.308-4.893l9.307,4.893c0.435,0.23,0.953,0.192,1.352-0.098
	c0.398-0.289,0.594-0.771,0.511-1.256l-1.778-10.364l7.53-7.34C43.233,22.478,43.358,21.974,43.206,21.505z M42.154,22.077
	l-7.922,7.722l1.87,10.903c0.023,0.135-0.06,0.211-0.097,0.238c-0.037,0.027-0.135,0.082-0.257,0.019l-9.792-5.148l-9.792,5.148
	c-0.12,0.063-0.22,0.008-0.257-0.019c-0.037-0.027-0.12-0.104-0.097-0.238l1.87-10.903l-7.922-7.722
	c-0.098-0.096-0.076-0.207-0.062-0.25c0.014-0.043,0.061-0.146,0.197-0.166l10.947-1.591l4.896-9.92
	c0.06-0.122,0.173-0.136,0.218-0.136c0.046,0,0.158,0.013,0.219,0.136h0l4.896,9.92l10.948,1.591
	c0.135,0.02,0.183,0.122,0.197,0.166C42.23,21.87,42.252,21.981,42.154,22.077z"/>
</svg>
