<?xml version="1.0" encoding="utf-8"?>
<!-- Generator: Adobe Illustrator 19.2.1, SVG Export Plug-In . SVG Version: 6.00 Build 0)  -->
<svg version="1.1" id="Layer_1" xmlns="http://www.w3.org/2000/svg" xmlns:xlink="http://www.w3.org/1999/xlink" x="0px" y="0px"
	 viewBox="0 0 50 50" style="enable-background:new 0 0 50 50;" xml:space="preserve">
<path d="M25,0C11.193,0,0,11.193,0,25s11.193,25,25,25s25-11.193,25-25S38.807,0,25,0z M36.875,20.706
	c0.011,0.241,0.016,0.484,0.016,0.728c0,7.43-5.655,15.997-15.996,15.997c-3.175,0-6.131-0.931-8.618-2.526
	c0.439,0.053,0.887,0.08,1.341,0.08c2.633,0,5.058-0.899,6.982-2.407c-2.46-0.045-4.536-1.671-5.252-3.904
	c0.343,0.065,0.695,0.1,1.058,0.1c0.512,0,1.009-0.068,1.481-0.196c-2.572-0.517-4.51-2.788-4.51-5.513c0-0.023,0-0.048,0.001-0.07
	c0.759,0.42,1.625,0.673,2.547,0.702c-1.509-1.009-2.501-2.729-2.501-4.68c0-1.031,0.278-1.996,0.762-2.827
	c2.772,3.401,6.915,5.64,11.587,5.874c-0.095-0.41-0.146-0.839-0.146-1.28c0-3.106,2.518-5.623,5.623-5.623
	c1.617,0,3.078,0.683,4.104,1.775c1.28-0.252,2.483-0.72,3.57-1.364c-0.42,1.312-1.312,2.414-2.473,3.11
	c1.138-0.136,2.222-0.439,3.23-0.886C38.927,18.922,37.973,19.912,36.875,20.706z"/>
</svg>
