<?xml version="1.0" encoding="utf-8"?>
<!-- Generator: Adobe Illustrator 19.2.1, SVG Export Plug-In . SVG Version: 6.00 Build 0)  -->
<svg version="1.1" id="Layer_1" xmlns="http://www.w3.org/2000/svg" xmlns:xlink="http://www.w3.org/1999/xlink" x="0px" y="0px"
	 viewBox="0 0 50 50" style="enable-background:new 0 0 50 50;" xml:space="preserve">
<g id="Icons">
	<path d="M50,10.959c-1.839,0.814-3.817,1.367-5.894,1.616c2.119-1.27,3.745-3.281,4.513-5.675c-1.984,1.175-4.178,2.03-6.514,2.489
		c-1.872-1.994-4.538-3.239-7.487-3.239c-5.666,0-10.259,4.592-10.259,10.259c0,0.805,0.092,1.587,0.266,2.336
		C16.098,18.319,8.539,14.233,3.481,8.028c-0.883,1.516-1.391,3.277-1.391,5.158c0,3.559,1.811,6.698,4.564,8.539
		c-1.681-0.053-3.262-0.514-4.647-1.281c-0.002,0.041-0.002,0.086-0.002,0.128c0,4.972,3.536,9.116,8.228,10.059
		c-0.861,0.234-1.767,0.358-2.702,0.358c-0.661,0-1.303-0.064-1.93-0.183c1.306,4.075,5.094,7.041,9.583,7.123
		c-3.511,2.752-7.934,4.392-12.739,4.392c-0.828,0-1.645-0.048-2.447-0.145c4.539,2.911,9.931,4.609,15.725,4.609
		c18.867,0,29.186-15.631,29.186-29.188c0-0.445-0.009-0.887-0.03-1.328C46.884,14.822,48.625,13.016,50,10.959z"/>
</g>
</svg>
